<svg xmlns="http://www.w3.org/2000/svg" viewBox="0 0 128 128" width="128" height="128">
  <defs>
    <style>
      .ring1 { fill: none; stroke: #f59e0b; stroke-width: 8; }
      .ring2 { fill: none; stroke: #865606; stroke-width: 4; }
      .disc  { fill: #111827; }
      .fgstroke { stroke: #ffffff; fill: none; stroke-width: 6; stroke-linecap: round; stroke-linejoin: round; }
      .fgfill   { fill: #ffffff; stroke: none; }
      .fgmix    { fill: #ffffff; stroke: #ffffff; stroke-width: 2; stroke-linecap: round; stroke-linejoin: round; }
      text { fill: #ffffff; font-family: ui-sans-serif, system-ui, -apple-system, Segoe UI, Roboto, Ubuntu, Cantarell, Noto Sans, Arial, 'Apple Color Emoji','Segoe UI Emoji'; font-weight: 700; }
    </style>
  </defs>
  <circle cx="64" cy="64" r="60" class="ring1"/>
  <circle cx="64" cy="64" r="52" class="ring2"/>
  <circle cx="64" cy="64" r="46" class="disc"/>
  <g transform="translate(0,0)">
  
    <g class="fgstroke">
      <polygon points="64,40 70,56 86,58 74,70 78,86 64,78 50,86 54,70 42,58 58,56" class="fgstroke" fill="none"/>
      <path d="M40 90 c-6 -8 -6 -20 2 -28"/>
      <path d="M36 78 c-8 0 -12 4 -14 10"/>
      <path d="M88 90 c6 -8 6 -20 -2 -28"/>
      <path d="M92 78 c8 0 12 4 14 10"/>
    </g>
    
  </g>
</svg>