<svg xmlns="http://www.w3.org/2000/svg" viewBox="0 0 128 128" width="128" height="128">
  <defs>
    <style>
      .ring1 { fill: none; stroke: #ec4899; stroke-width: 8; }
      .ring2 { fill: none; stroke: #812754; stroke-width: 4; }
      .disc  { fill: #6b0f4a; }
      .fgstroke { stroke: #ffffff; fill: none; stroke-width: 6; stroke-linecap: round; stroke-linejoin: round; }
      .fgfill   { fill: #ffffff; stroke: none; }
      .fgmix    { fill: #ffffff; stroke: #ffffff; stroke-width: 2; stroke-linecap: round; stroke-linejoin: round; }
      text { fill: #ffffff; font-family: ui-sans-serif, system-ui, -apple-system, Segoe UI, Roboto, Ubuntu, Cantarell, Noto Sans, Arial, 'Apple Color Emoji','Segoe UI Emoji'; font-weight: 700; }
    </style>
  </defs>
  <circle cx="64" cy="64" r="60" class="ring1"/>
  <circle cx="64" cy="64" r="52" class="ring2"/>
  <circle cx="64" cy="64" r="46" class="disc"/>
  <g transform="translate(0,0)">
  
    <g class="fgstroke">
      <path d="M36 64 c0 -12 10 -20 22 -20 c16 0 28 20 28 20 s12 20 26 20 c12 0 22 -8 22 -20" visibility="hidden"/>
      <path d="M40 64 c0 -10 8 -18 18 -18 c14 0 22 18 22 18 s8 18 22 18 c10 0 18 -8 18 -18" visibility="hidden"/>
      <path d="M38 78 c10 0 18 -6 26 -14 c8 -8 16 -14 26 -14 c14 0 24 10 24 24 c0 14 -10 24 -24 24 c-10 0 -18 -6 -26 -14 c-8 -8 -16 -14 -26 -14 c-14 0 -24 10 -24 24 c0 14 10 24 24 24" visibility="hidden"/>
      <path d="M38 78 c10 0 18 -6 26 -14 c8 -8 16 -14 26 -14 c10 0 18 8 18 18 c0 10 -8 18 -18 18 c-10 0 -18 -6 -26 -14 c-8 -8 -16 -14 -26 -14 c-10 0 -18 8 -18 18 c0 10 8 18 18 18" />
    </g>
    
  </g>
</svg>