<svg xmlns="http://www.w3.org/2000/svg" viewBox="0 0 256 256" width="256" height="256"><circle cx="128.0" cy="128.0" r="122.88" fill="#b62cff"/><circle cx="128.0" cy="128.0" r="104.96" fill="#081a23"/><circle cx="128.0" cy="128.0" r="23.04" fill="none" stroke="#5ee9f6" stroke-width="8.96"/><circle cx="128.0" cy="128.0" r="7.68" fill="#5ee9f6"/><ellipse cx="128.0" cy="51.2" rx="20.48" ry="11.52" fill="none" stroke="#5ee9f6" stroke-width="8.96"/><circle cx="128.0" cy="51.2" r="7.68" fill="#5ee9f6"/><ellipse cx="182.30580079512686" cy="73.69419920487316" rx="20.48" ry="11.52" fill="none" stroke="#5ee9f6" stroke-width="8.96"/><circle cx="182.30580079512686" cy="73.69419920487316" r="7.68" fill="#5ee9f6"/><ellipse cx="204.8" cy="128.0" rx="20.48" ry="11.52" fill="none" stroke="#5ee9f6" stroke-width="8.96"/><circle cx="204.8" cy="128.0" r="7.68" fill="#5ee9f6"/><ellipse cx="182.30580079512686" cy="182.30580079512686" rx="20.48" ry="11.52" fill="none" stroke="#5ee9f6" stroke-width="8.96"/><circle cx="182.30580079512686" cy="182.30580079512686" r="7.68" fill="#5ee9f6"/><ellipse cx="128.0" cy="204.8" rx="20.48" ry="11.52" fill="none" stroke="#5ee9f6" stroke-width="8.96"/><circle cx="128.0" cy="204.8" r="7.68" fill="#5ee9f6"/><ellipse cx="73.69419920487316" cy="182.30580079512686" rx="20.48" ry="11.52" fill="none" stroke="#5ee9f6" stroke-width="8.96"/><circle cx="73.69419920487316" cy="182.30580079512686" r="7.68" fill="#5ee9f6"/><ellipse cx="51.2" cy="128.0" rx="20.48" ry="11.52" fill="none" stroke="#5ee9f6" stroke-width="8.96"/><circle cx="51.2" cy="128.0" r="7.68" fill="#5ee9f6"/><ellipse cx="73.69419920487314" cy="73.69419920487316" rx="20.48" ry="11.52" fill="none" stroke="#5ee9f6" stroke-width="8.96"/><circle cx="73.69419920487314" cy="73.69419920487316" r="7.68" fill="#5ee9f6"/></svg>