<svg xmlns="http://www.w3.org/2000/svg" viewBox="0 0 256 256" width="256" height="256">
    <defs>
      <radialGradient id="gradtech4" cx="50%" cy="45%" r="60%">
        <stop offset="0%" stop-color="#e0f7ff" stop-opacity="1"/>
        <stop offset="100%" stop-color="#e0f7ff" stop-opacity="0.85"/>
      </radialGradient>
      <filter id="glowtech4" x="-50%" y="-50%" width="200%" height="200%">
        <feDropShadow dx="0" dy="0" stdDeviation="12.8" flood-color="#33ccff" flood-opacity="1"/>
      </filter>
    </defs>
    <circle cx="128.0" cy="128.0" r="122.88" fill="#33ccff" opacity="0.85"/><circle cx="128.0" cy="128.0" r="102.4" fill="url(#gradtech4)" stroke="black" stroke-width="3.072"/><g filter="url(#glowtech4)" transform="translate(128.0,128.0)"><rect x="-45.0" y="-45.0" width="90" height="90" fill="#cceeff" stroke="black" stroke-width="5.12"/><rect x="-59.0" y="-42" width="12" height="12" fill="black"/><rect x="47.0" y="-42" width="12" height="12" fill="black"/><rect x="-42" y="-59.0" width="12" height="12" fill="black"/><rect x="-42" y="47.0" width="12" height="12" fill="black"/><rect x="-59.0" y="-24" width="12" height="12" fill="black"/><rect x="47.0" y="-24" width="12" height="12" fill="black"/><rect x="-24" y="-59.0" width="12" height="12" fill="black"/><rect x="-24" y="47.0" width="12" height="12" fill="black"/><rect x="-59.0" y="12" width="12" height="12" fill="black"/><rect x="47.0" y="12" width="12" height="12" fill="black"/><rect x="12" y="-59.0" width="12" height="12" fill="black"/><rect x="12" y="47.0" width="12" height="12" fill="black"/><rect x="-59.0" y="30" width="12" height="12" fill="black"/><rect x="47.0" y="30" width="12" height="12" fill="black"/><rect x="30" y="-59.0" width="12" height="12" fill="black"/><rect x="30" y="47.0" width="12" height="12" fill="black"/><circle cx="0" cy="0" r="20" fill="black"/></g></svg>